<?xml version="1.0" encoding="utf-8"?>
<svg xmlns="http://www.w3.org/2000/svg"
	xmlns:xlink="http://www.w3.org/1999/xlink">
	<symbol viewBox="0 0 512 512" id="FB"
		xmlns="http://www.w3.org/2000/svg">
		<path d="M308.3 508.5c-2.5.1-4.1.3-5.7.3-34.2 0-68.3-.1-102.5.1-4.8 0-6.1-1.3-6.1-6.1.1-79.6.1-159.3.1-238.9V257H139v-85h5.4c15 0 30-.1 45 .1 3.8 0 4.8-1.1 4.8-4.8-.2-22.3-.2-44.7 0-67 .1-15.6 2.6-30.8 9.8-44.9 10.3-19.9 26.6-32.8 47.2-40.8 16.8-6.6 34.5-9 52.3-9.3 29-.4 58-.2 87-.3 2.7 0 4.9-.1 4.9 3.7-.1 27.5-.1 55-.1 82.5 0 .3-.1.6-.5 1.9h-5.5c-18 0-36-.1-54 0-10.4 0-18.8 4.2-24.1 13.3-1.6 2.7-2.6 6.2-2.6 9.4-.3 17 0 34-.2 51 0 4 1.2 5.1 5.1 5.1 25-.2 50-.1 75-.1h7.3c-3.5 28.6-6.9 56.6-10.4 84.9h-77.1v251.8z"/>
	</symbol>
	<symbol viewBox="0 0 512 512" id="RSS"
		xmlns="http://www.w3.org/2000/svg">
		<path d="M415.7 508.2c-2-110.5-39.2-206.7-116-285.9-76.9-79.3-171.6-119-282.4-121.2V5.4c8.4 0 16.8-.4 25.2.1 26.3 1.4 52.4 5 78.1 10.6 46.8 10.3 91.1 27.2 132.9 50.6 30.2 16.9 58.2 36.7 84.2 59.4 20.8 18.2 39.9 38.1 57.5 59.5 20.2 24.7 38 50.9 53.2 78.9 20.1 36.8 35.3 75.6 45.8 116.2 10.3 39.9 15.4 80.4 16.4 121.5.1 4.7-.8 6.4-5.8 6.3-27.8-.2-55.6-.1-83.5-.1-1.9.1-3.6-.1-5.6-.2z"/>
		<path d="M17.3 272.5v-95.8c170.9-4 326.8 145.6 324.9 331.2h-94.5c-.9-63.7-22.3-119.3-66.8-165.2-44.6-46-99.3-69.1-163.6-70.2z"/>
		<path d="M82.5 374.5c36.5-.1 65.8 29.5 65.8 66.7 0 36.8-29.2 66.7-65.3 66.8-36.6.1-66-29.5-66-66.5-.1-37.4 28.7-66.9 65.5-67z"/>
	</symbol>
	<symbol viewBox="0 0 512 512" id="TWITTER"
		xmlns="http://www.w3.org/2000/svg">
		<path d="M4 440.5c55.6 5 105.7-9 151.3-43.2-47.7-4.2-79.6-28-97.4-72.6 15.6 1.9 30.2 2.4 45.7-1.8-51.4-16-78.8-49.6-82.5-103.8 15.4 7.2 29.9 12.4 47 12.6-30.5-22.9-46.1-52.6-45.5-90 .3-17.2 4.9-33.4 14-48.7C93.1 159.1 164 195.7 251.3 201.8c-.5-3.8-.8-6.8-1.2-9.9-7.2-55.4 28.8-105.8 83.8-116.3 34.5-6.6 65 2.5 90.8 26.3 4 3.6 7.4 4.4 12.4 3.1 20.1-5.1 39.2-12.5 57.7-22.5-7.1 23.4-21.7 41-41.5 55.8 4.5-.8 9.1-1.4 13.6-2.3 4.7-1 9.4-2.1 14.1-3.4 4.5-1.2 8.9-2.6 13.3-4.1 4.5-1.5 9-3.2 14.3-4.1-2.6 3.6-5.1 7.4-7.9 10.9-11.6 14.7-25 27.6-39.7 39.1-1.5 1.2-2.8 3.8-2.7 5.6.8 35.5-4.2 70.1-15.7 103.7-22.6 66.2-62 119.8-121.1 158.1-29.2 18.9-61.1 31.3-95.2 38.5-33.8 7.1-67.8 8.4-101.9 4.4-34.2-4-66.7-14.1-97.3-29.9-8.1-4.1-15.9-8.7-23.8-13.1.3-.4.5-.8.7-1.2z"/>
	</symbol>
	<symbol viewBox="0 0 30 30" id="clock"
		xmlns="http://www.w3.org/2000/svg">
		<path d="M15 4a1 1 0 00-1 1v9H9a1 1 0 100 2h6a1 1 0 001-1V5a1 1 0 00-1-1zm0-4C6.716 0 0 6.716 0 15s6.716 15 15 15 15-6.716 15-15S23.284 0 15 0zm0 28C7.82 28 2 22.18 2 15S7.82 2 15 2s13 5.82 13 13-5.82 13-13 13z"/>
	</symbol>
	<symbol viewBox="0 0 512 512" id="envelope"
		xmlns="http://www.w3.org/2000/svg">		<!--! Font Awesome Free 6.0.0 by @fontawesome - https://fontawesome.com License - https://fontawesome.com/license/free (Icons: CC BY 4.0, Fonts: SIL OFL 1.1, Code: MIT License) Copyright 2022 Fonticons, Inc.-->
		<path d="M448 64H64C28.65 64 0 92.65 0 128v256c0 35.35 28.65 64 64 64h384c35.35 0 64-28.65 64-64V128c0-35.35-28.7-64-64-64zM64 112h384c8.822 0 16 7.178 16 16v22.16l-166.8 138.1c-23.19 19.28-59.34 19.27-82.47.016L48 150.2V128c0-8.8 7.18-16 16-16zm384 288H64c-8.822 0-16-7.178-16-16V212.7l136.1 113.4c20.2 16.7 45.7 25.9 71.9 25.9s51.75-9.188 71.97-25.98L464 212.7V384c0 8.8-7.2 16-16 16z"/>
	</symbol>
	<symbol viewBox="0 0 50 50" id="google"
		xmlns="http://www.w3.org/2000/svg">
		<path fill="none" stroke-linecap="round" stroke-linejoin="round" stroke-miterlimit="10" stroke-width="2" d="M28.552,23.913c0-3.626,5.89-3.944,5.89-11.022C34.443,7.763,31,6,30,6h4l3-3H26.106C14,3,13,11.281,13,14c0,4.048,2.633,9,9,9c0.579,0,1.345,0.075,2,0c0,0-0.667,1.204-0.667,2.137C23.333,27.081,24,28,25,29c-6.965-0.068-15.344,3.033-15.344,9.756c0,2.46,2.114,8.244,12.04,8.244c11.321,0,14.749-6.992,14.749-10.91C36.443,28.606,28.552,27.369,28.552,23.913z"/>
		<path d="M28.552,23.913c0-3.626,5.89-3.944,5.89-11.022C34.443,7.763,31,6,30,6h4l3-3H26.106C14,3,13,11.281,13,14c0,4.048,2.633,9,9,9c0.579,0,1.345,0.075,2,0c0,0-0.667,1.204-0.667,2.137C23.333,27.081,24,28,25,29c-6.965-0.068-15.344,3.033-15.344,9.756c0,2.46,2.114,8.244,12.04,8.244c11.321,0,14.749-6.992,14.749-10.91C36.443,28.606,28.552,27.369,28.552,23.913z M24.406,20c-3.364,0-6.204-4.228-6.204-8.75c0-1.343,0.647-5.25,4.365-5.25c4.79,0,5.958,7.105,5.958,9.038C28.525,15.484,28.842,20,24.406,20z M25.098,42.818C21.12,43.616,15,42,15.029,37.035c0.012-2.119,1.215-6.051,8.101-7.037c0,0,1.722-0.288,2.951,0C27.838,31.314,31,33.397,31,36.901C30.998,38.49,30.016,41.832,25.098,42.818z"/>
	</symbol>
	<symbol viewBox="0 0 512 512" id="heart"
		xmlns="http://www.w3.org/2000/svg">		<!--! Font Awesome Free 6.0.0 by @fontawesome - https://fontawesome.com License - https://fontawesome.com/license/free (Icons: CC BY 4.0, Fonts: SIL OFL 1.1, Code: MIT License) Copyright 2022 Fonticons, Inc.-->
		<path d="M244 84l11.1 12 12-11.98C300.6 51.37 347 36.51 392.6 44.1c68.9 11.48 119.4 71.1 119.4 141v5.8c0 41.5-17.2 81.2-47.6 109.5L283.7 469.1c-7.5 7-17.4 10.9-27.7 10.9s-20.2-3.9-27.7-10.9L47.59 300.4C17.23 272.1 0 232.4 0 190.9v-5.8c0-69.9 50.52-129.52 119.4-141 44.7-7.59 92 7.27 124.6 39.9-.9 0 0 .01 0 0zm11.1 79.9l-45-46.8c-21.7-20.82-52.5-30.7-82.8-25.66C81.55 99.07 48 138.7 48 185.1v5.8c0 28.2 11.71 55.2 32.34 74.4L256 429.3l175.7-164c20.6-19.2 32.3-46.2 32.3-74.4v-5.8c0-46.4-33.6-86.03-79.3-93.66-30.3-5.04-61.1 4.84-82.8 25.66l-46.8 46.8z"/>
	</symbol>
	<symbol viewBox="0 0 512 512" id="heart-solid"
		xmlns="http://www.w3.org/2000/svg">		<!--! Font Awesome Free 6.0.0 by @fontawesome - https://fontawesome.com License - https://fontawesome.com/license/free (Icons: CC BY 4.0, Fonts: SIL OFL 1.1, Code: MIT License) Copyright 2022 Fonticons, Inc.-->
		<path d="M0 190.9v-5.8c0-69.9 50.52-129.52 119.4-141 44.7-7.59 92 7.27 124.6 39.92L256 96l11.1-11.98C300.6 51.37 347 36.51 392.6 44.1c68.9 11.48 119.4 71.1 119.4 141v5.8c0 41.5-17.2 81.2-47.6 109.5L283.7 469.1c-7.5 7-17.4 10.9-27.7 10.9s-20.2-3.9-27.7-10.9L47.59 300.4C17.23 272.1 0 232.4 0 190.9z"/>
	</symbol>
	<symbol viewBox="0 0 50 50" id="instagram"
		xmlns="http://www.w3.org/2000/svg">
		<path d="M12 3c-4.96 0-9 4.04-9 9v26c0 4.96 4.04 9 9 9h26c4.96 0 9-4.04 9-9V12c0-4.96-4.04-9-9-9H12zm26 5h3c.55 0 1 .45 1 1v3c0 .55-.45 1-1 1h-3c-.55 0-1-.45-1-1V9c0-.55.45-1 1-1zm-13 2c5.33 0 10.02 2.8 12.68 7H42v20c0 2.76-2.24 5-5 5H13c-2.76 0-5-2.24-5-5V17h4.32c2.66-4.2 7.35-7 12.68-7zm0 2c-7.17 0-13 5.83-13 13s5.83 13 13 13 13-5.83 13-13-5.83-13-13-13zm0 4c4.96 0 9 4.04 9 9s-4.04 9-9 9-9-4.04-9-9 4.04-9 9-9z"/>
	</symbol>
	<symbol viewBox="0 0 241.66 241.66" id="like"
		xmlns="http://www.w3.org/2000/svg">
		<path d="M208.632 133.579c10.345.472 19.121-7.677 19.574-18.203.453-10.526-6.821-19.989-17.174-20.444l-68.73-8.63s14.323-23.958 14.323-59.455C156.625 3.184 139.72 0 129.778 0c-7.821-.003-9.927 15.151-9.927 15.151h-.016c-1.771 9.717-4.077 18.203-12.09 33.827-8.97 17.512-21.186 15.869-35.448 31.467-2.517 2.747-5.899 7.281-9.195 12.86-.269.295-.52.708-.763 1.289-.294.692-.646 1.172-.956 1.812a101.576 101.576 0 00-1.611 3.059c-8.827 8.827-22.579 7.925-28.435 7.925-11.746 0-17.898 6.825-17.898 17.898l-.004 81.828c0 12.423 5.083 16.613 17.903 16.613h17.898c9.011 0 16.067 5.166 26.848 8.949 14.767 5.116 36.821 8.956 74.811 8.956 6.644 0 27.251.025 27.251.025 6.309 0 11.377-2.882 15.034-6.362 1.392-1.323 2.844-3.245 3.465-6.995.101-.581.209-3.017.193-3.346.477-10.728-6.008-14.612-9.682-15.835.1-.034.034-.126.234-.118l11.663.522c10.353.472 20.572-6.986 20.572-19.669 0-10.517-8.525-17.934-18.844-18.439l6.184.287c10.352.455 19.103-7.694 19.582-18.22.451-10.525-7.57-19.432-17.915-19.905z"/>
	</symbol>
	<symbol viewBox="0 0 512 512" id="phone"
		xmlns="http://www.w3.org/2000/svg">		<!--! Font Awesome Free 6.0.0 by @fontawesome - https://fontawesome.com License - https://fontawesome.com/license/free (Icons: CC BY 4.0, Fonts: SIL OFL 1.1, Code: MIT License) Copyright 2022 Fonticons, Inc.-->
		<path d="M511.2 387l-23.25 100.8c-3.266 14.25-15.79 24.22-30.46 24.22C205.2 512 0 306.8 0 54.5c0-14.66 9.969-27.2 24.22-30.45L125.02.8c14.68-3.402 29.68 4.218 35.78 18.12l46.52 108.5c5.438 12.78 1.77 27.67-8.98 36.45L144.5 207.1c33.98 69.22 90.26 125.5 159.5 159.5l44.08-53.8c8.688-10.78 23.69-14.51 36.47-8.975l108.5 46.51C506.1 357.2 514.6 372.4 511.2 387z"/>
	</symbol>
	<symbol viewBox="0 0 384 512" id="pinterest-p"
		xmlns="http://www.w3.org/2000/svg">		<!--! Font Awesome Free 6.0.0 by @fontawesome - https://fontawesome.com License - https://fontawesome.com/license/free (Icons: CC BY 4.0, Fonts: SIL OFL 1.1, Code: MIT License) Copyright 2022 Fonticons, Inc.-->
		<path d="M204 6.5C101.4 6.5 0 74.9 0 185.6 0 256 39.6 296 63.6 296c9.9 0 15.6-27.6 15.6-35.4 0-9.3-23.7-29.1-23.7-67.8 0-80.4 61.2-137.4 140.4-137.4 68.1 0 118.5 38.7 118.5 109.8 0 53.1-21.3 152.7-90.3 152.7-24.9 0-46.2-18-46.2-43.8 0-37.8 26.4-74.4 26.4-113.4 0-66.2-93.9-54.2-93.9 25.8 0 16.8 2.1 35.4 9.6 50.7-13.8 59.4-42 147.9-42 209.1 0 18.9 2.7 37.5 4.5 56.4 3.4 3.8 1.7 3.4 6.9 1.5 50.4-69 48.6-82.5 71.4-172.8 12.3 23.4 44.1 36 69.3 36 106.2 0 153.9-103.5 153.9-196.8C384 71.3 298.2 6.5 204 6.5z"/>
	</symbol>
	<symbol viewBox="0 0 485.211 485.211" id="redo-arrow"
		xmlns="http://www.w3.org/2000/svg">
		<path d="M333.586 394.235l151.625-150.802L333.586 90.976v90.978H212.282C95.05 181.954 0 277.022 0 394.235c0-50.227 40.734-90.979 90.978-90.979h242.608v90.979z"/>
	</symbol>
	<symbol viewBox="0 0 612 612" id="timetable"
		xmlns="http://www.w3.org/2000/svg">
		<path d="M598.968 72.777c-8.656-8.839-19.354-13.397-32.013-13.397H434.433V34.062c0-11.539-8.935-20.474-20.474-20.474s-20.474 8.935-20.474 20.474V59.38H218.896V34.062c0-11.539-9.308-20.474-20.847-20.474-11.547 0-20.481 8.935-20.481 20.474V59.38H45.045c-12.286 0-23.174 4.376-32.013 13.397C4.376 81.625 0 92.139 0 104.425v448.942c0 12.285 4.376 22.8 13.032 31.647 8.839 9.021 19.727 13.397 32.013 13.397h521.91c12.659 0 23.547-4.376 32.013-13.032 8.656-8.84 13.032-19.728 13.032-32.013V104.425c0-12.286-4.559-22.991-13.032-31.648zm-27.915 480.59c0 1.492-2.239 3.725-4.098 3.725H45.045c-1.858 0-4.09-2.232-4.09-3.725V250.718h530.098v302.649zm0-343.596H40.955V104.425c0-2.605 1.485-3.725 4.09-3.725h132.522v8.935c0 11.539 8.935 20.847 20.481 20.847 11.54 0 20.847-9.308 20.847-20.847V100.7h174.589v8.935c0 11.539 8.935 20.847 20.474 20.847s20.474-9.308 20.474-20.847V100.7h132.522c2.604 0 4.098 1.12 4.098 3.725v105.346z"/>
		<path d="M219.634 372.821h246.811c11.539 0 20.474-9.308 20.474-20.847 0-11.54-8.935-20.474-20.474-20.474H219.634c-11.539 0-20.847 8.934-20.847 20.474.001 11.54 9.308 20.847 20.847 20.847zm0 99.025h246.811c11.539 0 20.474-8.935 20.474-20.474s-8.935-20.847-20.474-20.847H219.634c-11.539 0-20.847 9.308-20.847 20.847s9.308 20.474 20.847 20.474zm-94.553-140.345h40.947v41.32h-40.947zm0 99.024h40.947v41.32h-40.947z"/>
	</symbol>
	<symbol viewBox="0 0 320 512" id="tumblr"
		xmlns="http://www.w3.org/2000/svg">		<!--! Font Awesome Free 6.0.0 by @fontawesome - https://fontawesome.com License - https://fontawesome.com/license/free (Icons: CC BY 4.0, Fonts: SIL OFL 1.1, Code: MIT License) Copyright 2022 Fonticons, Inc.-->
		<path d="M309.8 480.3c-13.6 14.5-50 31.7-97.4 31.7-120.8 0-147-88.8-147-140.6v-144H17.9c-5.5 0-10-4.5-10-10v-68c0-7.2 4.5-13.6 11.3-16 62-21.8 81.5-76 84.3-117.1.8-11 6.5-16.3 16.1-16.3h70.9c5.5 0 10 4.5 10 10v115.2h83c5.5 0 10 4.4 10 9.9v81.7c0 5.5-4.5 10-10 10h-83.4V360c0 34.2 23.7 53.6 68 35.8 4.8-1.9 9-3.2 12.7-2.2 3.5.9 5.8 3.4 7.4 7.9l22 64.3c1.8 5 3.3 10.6-.4 14.5z"/>
	</symbol>
</svg>